<?xml version="1.0" standalone="no"?>
<!DOCTYPE svg PUBLIC "-//W3C//DTD SVG 20010904//EN"
 "http://www.w3.org/TR/2001/REC-SVG-20010904/DTD/svg10.dtd">
<svg version="1.0" xmlns="http://www.w3.org/2000/svg"
 width="202.000000pt" height="202.000000pt" viewBox="0 0 202.000000 202.000000"
 preserveAspectRatio="xMidYMid meet">
<metadata>
Created by potrace 1.11, written by Peter Selinger 2001-2013
</metadata>
<g transform="translate(0.000000,202.000000) scale(0.100000,-0.100000)"
fill="#000000" stroke="none">
<path d="M70 1310 l0 -432 233 4 232 3 58 29 c38 18 69 43 88 69 l29 40 0
-341 0 -342 60 0 60 0 0 380 0 380 35 0 35 0 0 -110 0 -110 60 0 60 0 0 110 0
110 50 0 50 0 0 50 0 50 -50 0 -50 0 0 270 0 270 -60 0 -60 0 0 -270 0 -270
-85 0 -85 0 -1 -62 c0 -69 -17 -131 -18 -70 -1 32 -2 32 -48 32 -45 0 -49 -2
-68 -38 -13 -24 -35 -45 -65 -59 -40 -21 -58 -23 -197 -23 l-153 0 0 150 0
150 148 0 c167 0 214 -10 253 -51 24 -25 34 -29 83 -29 64 0 70 10 34 56 -30
38 -57 60 -91 75 l-27 12 32 23 c46 35 69 75 75 137 10 93 -29 166 -111 210
-38 21 -56 22 -273 25 l-233 3 0 -431z m440 312 c42 -21 60 -53 60 -110 0
-105 -50 -132 -250 -132 l-140 0 0 130 0 130 148 0 c120 0 153 -3 182 -18z
m510 -472 l0 -50 -60 0 -60 0 0 50 0 50 60 0 60 0 0 -50z"/>
<path d="M420 1150 l0 -50 94 0 c103 0 108 3 96 65 l-5 30 -93 3 -92 3 0 -51z"/>
<path d="M1174 1178 c3 -13 72 -205 154 -428 l147 -405 64 0 64 0 154 420 c84
231 153 423 153 428 0 4 -28 7 -63 7 l-62 0 -120 -360 c-66 -198 -122 -360
-125 -360 -3 0 -59 161 -125 358 l-120 357 -64 3 c-62 3 -63 2 -57 -20z"/>
</g>
</svg>
