<?xml version="1.0" standalone="no"?>
<!DOCTYPE svg PUBLIC "-//W3C//DTD SVG 20010904//EN"
 "http://www.w3.org/TR/2001/REC-SVG-20010904/DTD/svg10.dtd">
<svg version="1.0" xmlns="http://www.w3.org/2000/svg"
 width="700.000000pt" height="700.000000pt" viewBox="0 0 700.000000 700.000000"
 preserveAspectRatio="xMidYMid meet">
<metadata>
Created by potrace 1.11, written by Peter Selinger 2001-2013
</metadata>
<g transform="translate(0.000000,700.000000) scale(0.100000,-0.100000)"
fill="#000000" stroke="none">
<path d="M216 5660 c-2 -8 -3 -796 -2 -1750 l1 -1735 1420 0 c1244 0 1567 4
1715 20 494 53 823 148 1069 310 312 206 434 522 330 855 -83 264 -349 486
-722 602 -96 30 -132 48 -93 48 24 0 219 104 281 150 171 126 266 256 314 430
16 57 20 95 17 184 -2 61 -6 118 -8 126 -3 8 -8 29 -13 45 -38 141 -159 292
-325 405 -214 145 -610 267 -964 296 -27 2 -70 6 -95 8 -154 16 -387 19 -1589
20 -1176 1 -1333 -1 -1336 -14z m2536 -714 c203 -27 351 -105 404 -212 28 -57
26 -175 -3 -230 -62 -118 -210 -185 -458 -211 -38 -4 -308 -7 -600 -8 l-530 0
-3 338 -2 337 572 -4 c315 -2 594 -7 620 -10z m183 -1358 c11 -3 43 -9 70 -12
201 -28 351 -120 390 -237 22 -66 16 -168 -13 -225 -61 -120 -228 -195 -487
-219 -39 -4 -530 -6 -1062 -5 l-273 0 0 348 c0 192 3 351 6 355 7 7 1340 2
1369 -5z"/>
<path d="M5518 5672 l-28 -3 0 -1749 0 -1749 680 0 680 0 -2 1752 -3 1751
-650 1 c-357 0 -662 -1 -677 -3z"/>
<path d="M1685 1618 c0 -93 -2 -168 -5 -169 -3 -1 -77 -2 -165 -3 l-160 -1 -3
-171 -2 -171 167 0 167 0 1 -244 c1 -134 5 -264 9 -288 19 -111 112 -222 237
-284 73 -35 188 -76 232 -82 12 -1 33 -5 47 -9 133 -34 564 -40 735 -11 93 16
187 39 201 49 14 11 11 20 -23 76 -21 36 -51 86 -68 112 -16 25 -42 66 -56 91
l-27 44 -68 -17 c-139 -34 -307 -22 -365 27 -53 45 -55 58 -55 307 l1 229 260
1 260 1 0 170 0 170 -245 1 c-135 1 -252 2 -260 3 -13 1 -15 26 -15 169 l0
167 -400 0 -401 1 1 -168z"/>
<path d="M3180 1489 c0 -5 39 -62 84 -124 37 -50 327 -454 571 -795 148 -206
270 -377 272 -380 2 -2 190 -5 417 -5 l413 0 101 140 c56 77 171 237 256 355
85 118 168 233 184 255 185 249 399 555 389 556 -7 1 -177 2 -379 3 l-368 1
-25 -35 c-14 -19 -53 -73 -87 -120 -34 -47 -78 -107 -98 -135 -21 -27 -102
-140 -181 -251 -163 -226 -188 -259 -192 -253 -2 2 -42 60 -88 129 -46 68 -88
129 -92 135 -5 5 -85 123 -179 260 -94 138 -174 254 -179 260 -10 10 -819 15
-819 4z"/>
</g>
</svg>
